<?xml version="1.0" standalone="no"?>
<!DOCTYPE svg PUBLIC "-//W3C//DTD SVG 20010904//EN"
 "http://www.w3.org/TR/2001/REC-SVG-20010904/DTD/svg10.dtd">
<svg version="1.0" xmlns="http://www.w3.org/2000/svg"
 width="1097.000000pt" height="1313.000000pt" viewBox="0 0 1097.000000 1313.000000"
 preserveAspectRatio="xMidYMid meet">
<metadata>
Created by potrace 1.16, written by Peter Selinger 2001-2019
</metadata>
<g transform="translate(0.000000,1313.000000) scale(0.100000,-0.100000)"
fill="#000000" stroke="none">
<path d="M5150 10304 c-516 -62 -1037 -281 -1435 -604 -502 -407 -856 -985
-989 -1615 -71 -340 -75 -768 -11 -1110 79 -414 263 -827 523 -1174 115 -153
392 -430 542 -543 431 -322 914 -510 1434 -559 164 -15 543 -6 686 16 304 47
549 125 825 260 307 151 501 290 751 539 249 250 388 444 539 751 135 276 213
521 260 825 22 143 31 522 16 686 -49 520 -237 1003 -559 1434 -113 150 -390
427 -543 542 -347 260 -760 444 -1174 523 -242 45 -621 58 -865 29z m735 -34
c325 -49 591 -135 881 -284 431 -222 780 -535 1049 -941 621 -933 618 -2161
-7 -3092 -709 -1058 -2036 -1504 -3238 -1088 -663 230 -1215 702 -1548 1323
-153 286 -252 585 -303 922 -32 210 -32 581 0 790 51 335 136 596 285 886 440
853 1270 1410 2243 1504 145 14 480 4 638 -20z"/>
<path d="M4622 9258 c-490 -2438 -774 -3846 -778 -3861 -5 -16 15 -17 351 -15
l357 3 66 162 c37 90 70 163 73 163 4 0 24 -30 45 -66 53 -91 171 -200 273
-253 116 -60 210 -82 356 -82 198 0 368 42 560 137 563 279 984 947 1065 1689
14 129 14 427 0 541 -50 413 -237 702 -527 819 -108 44 -210 58 -377 52 -120
-4 -169 -10 -241 -30 -178 -50 -345 -133 -518 -258 -54 -39 -100 -69 -102 -67
-2 2 30 129 71 283 41 154 111 453 155 665 44 212 91 436 105 498 13 63 24
115 24 118 0 2 -193 4 -428 4 l-429 0 -101 -502z m1297 -1443 c94 -52 159
-155 186 -300 18 -90 20 -322 4 -445 -70 -569 -388 -1016 -753 -1058 -189 -22
-354 64 -441 231 l-29 55 118 583 119 584 45 65 c145 205 367 323 597 317 89
-2 106 -6 154 -32z"/>
</g>
</svg>
