<?xml version="1.0" encoding="UTF-8" standalone="no"?>
<svg
   xmlns:dc="http://purl.org/dc/elements/1.1/"
   xmlns:cc="http://creativecommons.org/ns#"
   xmlns:rdf="http://www.w3.org/1999/02/22-rdf-syntax-ns#"
   xmlns:svg="http://www.w3.org/2000/svg"
   xmlns="http://www.w3.org/2000/svg"
   xmlns:sodipodi="http://sodipodi.sourceforge.net/DTD/sodipodi-0.dtd"
   xmlns:inkscape="http://www.inkscape.org/namespaces/inkscape"
   inkscape:version="1.0 (4035a4fb49, 2020-05-01)"
   sodipodi:docname="facebook - Copia.svg"
   id="svg40"
   preserveAspectRatio="xMidYMid meet"
   viewBox="0 0 130.000000 130.000000"
   height="130.000000pt"
   width="130.000000pt"
   version="1.0">
  <defs
     id="defs44" />
  <sodipodi:namedview
     inkscape:current-layer="svg40"
     inkscape:window-maximized="1"
     inkscape:window-y="-9"
     inkscape:window-x="-9"
     inkscape:cy="86.666667"
     inkscape:cx="86.666667"
     inkscape:zoom="4.7884615"
     showgrid="false"
     id="namedview42"
     inkscape:window-height="1001"
     inkscape:window-width="1920"
     inkscape:pageshadow="2"
     inkscape:pageopacity="0"
     guidetolerance="10"
     gridtolerance="10"
     objecttolerance="10"
     borderopacity="1"
     bordercolor="#666666"
     pagecolor="#ffffff" />
  <metadata
     id="metadata34">
Created by potrace 1.16, written by Peter Selinger 2001-2019
<rdf:RDF>
  <cc:Work
     rdf:about="">
    <dc:format>image/svg+xml</dc:format>
    <dc:type
       rdf:resource="http://purl.org/dc/dcmitype/StillImage" />
  </cc:Work>
</rdf:RDF>
</metadata>
  <g
     id="g38"
     stroke="none"
     fill="#ffffff"
     transform="translate(0.000000,130.000000) scale(0.100000,-0.100000)">
    <path
       id="path36"
       d="M491 1234 c-192 -52 -354 -207 -418 -399 -22 -67 -26 -98 -26 -190 0 -93 4 -122 27 -188 54 -161 163 -286 311 -357 44 -22 99 -42 123 -46 l42 -7 0 217 0 216 -75 0 -75 0 0 85 0 85 75 0 75 0 0 91 c0 116 14 164 65 214 48 49 98 65 196 65 122 0 120 1 117 -89 l-3 -76 -60 -3 c-89 -5 -105 -23 -105 -124 l0 -78 80 0 c91 0 86 7 69 -101 l-12 -69 -68 0 -69 0 0 -215 c0 -248 -8 -233 104 -191 201 76 346 246 386 454 19 93 8 231 -23 322 -66 186 -226 334 -417 385 -71 19 -248 18 -319 -1z" />
  </g>
</svg>
