<?xml version="1.0" encoding="UTF-8" standalone="no"?>
<svg
   xmlns:dc="http://purl.org/dc/elements/1.1/"
   xmlns:cc="http://creativecommons.org/ns#"
   xmlns:rdf="http://www.w3.org/1999/02/22-rdf-syntax-ns#"
   xmlns:svg="http://www.w3.org/2000/svg"
   xmlns="http://www.w3.org/2000/svg"
   xmlns:sodipodi="http://sodipodi.sourceforge.net/DTD/sodipodi-0.dtd"
   xmlns:inkscape="http://www.inkscape.org/namespaces/inkscape"
   inkscape:version="1.0 (4035a4fb49, 2020-05-01)"
   sodipodi:docname="instagram - Copia.svg"
   id="svg36"
   preserveAspectRatio="xMidYMid meet"
   viewBox="0 0 504.000000 504.000000"
   height="504.000000pt"
   width="504.000000pt"
   version="1.0">
  <defs
     id="defs40" />
  <sodipodi:namedview
     inkscape:current-layer="svg36"
     inkscape:window-maximized="1"
     inkscape:window-y="-9"
     inkscape:window-x="-9"
     inkscape:cy="198.36145"
     inkscape:cx="336"
     inkscape:zoom="1.235119"
     showgrid="false"
     id="namedview38"
     inkscape:window-height="1001"
     inkscape:window-width="1920"
     inkscape:pageshadow="2"
     inkscape:pageopacity="0"
     guidetolerance="10"
     gridtolerance="10"
     objecttolerance="10"
     borderopacity="1"
     bordercolor="#666666"
     pagecolor="#ffffff" />
  <metadata
     id="metadata26">
Created by potrace 1.16, written by Peter Selinger 2001-2019
<rdf:RDF>
  <cc:Work
     rdf:about="">
    <dc:format>image/svg+xml</dc:format>
    <dc:type
       rdf:resource="http://purl.org/dc/dcmitype/StillImage" />
  </cc:Work>
</rdf:RDF>
</metadata>
  <g
     id="g34"
     stroke="none"
     fill="#ffffff"
     transform="translate(0.000000,504.000000) scale(0.100000,-0.100000)">
    <path
       id="path28"
       d="M1550 5034 c-540 -27 -861 -144 -1130 -414 -236 -235 -358 -522 -402 -940 -19 -179 -19 -2141 0 -2320 44 -418 166 -705 402 -940 235 -236 522 -358 940 -402 179 -19 2141 -19 2320 0 418 44 705 166 940 402 236 235 358 522 402 940 19 179 19 2141 0 2320 -44 418 -166 705 -402 940 -230 231 -513 354 -920 401 -74 8 -396 13 -1095 14 -544 1 -1019 0 -1055 -1z m2070 -473 c128 -13 245 -36 325 -63 317 -105 518 -339 589 -688 37 -183 41 -309 41 -1290 0 -981 -4 -1107 -41 -1290 -81 -396 -328 -643 -724 -724 -183 -37 -309 -41 -1290 -41 -981 0 -1107 4 -1290 41 -399 82 -646 330 -724 729 -33 166 -38 296 -43 1100 -5 796 3 1203 27 1380 68 491 346 768 840 835 47 7 162 15 255 20 250 12 1907 4 2035 -9z" />
    <path
       id="path30"
       d="M3750 4153 c-63 -23 -151 -113 -173 -177 -9 -27 -17 -77 -17 -111 0 -92 24 -151 89 -216 65 -65 124 -89 216 -89 92 0 151 24 216 89 66 66 89 124 89 220 0 169 -135 302 -305 300 -38 0 -90 -8 -115 -16z" />
    <path
       id="path32"
       d="M2355 3809 c-305 -41 -562 -173 -775 -395 -239 -249 -354 -540 -354 -894 0 -358 116 -648 362 -902 255 -264 560 -392 932 -392 372 0 677 128 932 392 246 254 362 544 362 902 0 358 -116 648 -362 902 -191 198 -419 322 -685 373 -101 20 -317 27 -412 14z m400 -489 c276 -88 479 -293 567 -570 20 -65 23 -95 23 -230 0 -135 -3 -165 -23 -230 -88 -279 -293 -484 -572 -572 -65 -20 -95 -23 -230 -23 -135 0 -165 3 -230 23 -279 88 -484 293 -572 572 -20 65 -23 95 -23 230 0 135 3 165 23 230 96 303 338 526 643 590 24 5 107 8 184 6 111 -3 155 -8 210 -26z" />
  </g>
</svg>
